<svg width="60" height="60" viewBox="0 0 60 60" fill="none" xmlns="http://www.w3.org/2000/svg">
    <rect width="60" height="60" fill="black" />
    <path fill-rule="evenodd" clip-rule="evenodd"
        d="M44.1171 20.1179C44.1171 22.2433 43.6475 24.259 42.8063 26.0669C49.2002 27.4135 54 33.087 54 39.8816C54 47.6786 47.6792 53.9994 39.8821 53.9994H20.1179C12.3208 53.9994 6 47.6786 6 39.8816C6 33.0874 10.7993 27.4141 17.1928 26.0671C16.3515 24.2591 15.8818 22.2434 15.8818 20.1179C15.8818 12.3208 22.2025 6 29.9995 6C37.7964 6 44.1171 12.3208 44.1171 20.1179ZM36.5285 24.4586L31.62 21.8088C30.5995 21.2579 29.37 21.2591 28.3506 21.8121L23.47 24.46C22.4853 24.9942 22.4853 26.4076 23.47 26.9419L28.3506 29.5897C29.37 30.1427 30.5995 30.144 31.62 29.5931L36.5285 26.9432C37.5166 26.4098 37.5166 24.9921 36.5285 24.4586Z"
        fill="white" />
</svg>