<svg width="60" height="60" viewBox="0 0 60 60" fill="none" xmlns="http://www.w3.org/2000/svg">
    <rect width="60" height="60" fill="#495CEF" />
    <path d="M39.1751 36.1991L42.1109 38.9133C40.8554 40.5382 39.2674 41.8307 37.3472 42.7908C35.4638 43.714 33.322 44.1756 30.9216 44.1756C28.152 44.1756 25.6778 43.5478 23.499 42.2923C21.3572 41.0367 19.6585 39.3195 18.4029 37.1408C17.1843 34.962 16.575 32.4693 16.575 29.6628C16.575 26.8562 17.1843 24.3635 18.4029 22.1848C19.6585 20.006 21.3756 18.2888 23.5544 17.0332C25.7332 15.7777 28.2074 15.1499 30.977 15.1499C33.3774 15.1499 35.5192 15.63 37.4026 16.5901C39.2859 17.5133 40.8554 18.7873 42.1109 20.4122L39.1751 23.1264C38.2888 21.797 37.181 20.7446 35.8516 19.9691C34.5221 19.1566 32.8973 18.7504 30.977 18.7504C28.9829 18.7504 27.2288 19.212 25.7147 20.1352C24.2007 21.0584 23.019 22.3509 22.1696 24.0127C21.3202 25.6376 20.8956 27.5209 20.8956 29.6628C20.8956 31.8046 21.3202 33.7064 22.1696 35.3682C23.019 36.993 24.2007 38.2671 25.7147 39.1903C27.2288 40.1135 28.9829 40.5751 30.977 40.5751C32.8973 40.5751 34.5221 40.1873 35.8516 39.4119C37.181 38.5994 38.2888 37.5285 39.1751 36.1991Z" fill="white" />
</svg>